    <svg width="14" height="17" viewBox="0 0 14 17" fill="none" xmlns="http://www.w3.org/2000/svg">
      <path fill-rule="evenodd" clip-rule="evenodd" d="M8.27729e-05 4.50063C8.27671e-05 4.63324 0.0527609 4.76042 0.146529 4.85418C0.240297 4.94795 0.367474 5.00063 0.500083 5.00063L12.2931 5.00063L9.14608 8.14663C9.0522 8.24052 8.99945 8.36786 8.99945 8.50063C8.99945 8.63341 9.0522 8.76074 9.14608 8.85463C9.23997 8.94852 9.36731 9.00126 9.50008 9.00126C9.63286 9.00126 9.7602 8.94852 9.85408 8.85463L13.8541 4.85463C13.9006 4.80819 13.9376 4.75301 13.9628 4.69226C13.988 4.63152 14.001 4.5664 14.001 4.50063C14.001 4.43486 13.988 4.36974 13.9628 4.309C13.9376 4.24825 13.9006 4.19308 13.8541 4.14663L9.85408 0.146631C9.8076 0.100143 9.75241 0.0632673 9.69167 0.0381082C9.63093 0.0129491 9.56583 -1.93867e-07 9.50008 -1.9674e-07C9.36731 -2.02544e-07 9.23997 0.0527446 9.14608 0.146631C9.0522 0.240518 8.99945 0.367856 8.99945 0.500631C8.99945 0.633407 9.0522 0.760745 9.14608 0.854631L12.2931 4.00063L0.500083 4.00063C0.367474 4.00063 0.240297 4.05331 0.146529 4.14708C0.0527609 4.24085 8.27787e-05 4.36802 8.27729e-05 4.50063Z" fill="#828282"/>
      <path fill-rule="evenodd" clip-rule="evenodd" d="M14.0019 12.0009C14.0019 12.1335 13.9492 12.2607 13.8554 12.3544C13.7617 12.4482 13.6345 12.5009 13.5019 12.5009L1.70887 12.5009L4.85587 15.6469C4.94976 15.7408 5.0025 15.8681 5.0025 16.0009C5.0025 16.1337 4.94976 16.261 4.85587 16.3549C4.76198 16.4488 4.63465 16.5015 4.50187 16.5015C4.36909 16.5015 4.24176 16.4488 4.14787 16.3549L0.147871 12.3549C0.101307 12.3084 0.0643645 12.2533 0.039158 12.1925C0.0139516 12.1318 0.000976762 12.0666 0.000976759 12.0009C0.000976756 11.9351 0.0139516 11.87 0.039158 11.8092C0.0643644 11.7485 0.101307 11.6933 0.147871 11.6469L4.14787 7.64688C4.19436 7.60039 4.24955 7.56351 4.31029 7.53835C4.37103 7.51319 4.43613 7.50024 4.50187 7.50024C4.63465 7.50024 4.76198 7.55299 4.85587 7.64688C4.94976 7.74076 5.0025 7.8681 5.0025 8.00088C5.0025 8.13365 4.94976 8.26099 4.85587 8.35488L1.70887 11.5009L13.5019 11.5009C13.6345 11.5009 13.7617 11.5536 13.8554 11.6473C13.9492 11.7411 14.0019 11.8683 14.0019 12.0009Z" fill="#828282"/>
    </svg>