<svg width="16" height="19" viewBox="0 0 19 22" fill="none" xmlns="http://www.w3.org/2000/svg">
<path d="M3.55029 22C2.94229 22 2.42476 21.7805 1.99771 21.3415C1.57067 20.9026 1.35714 20.371 1.35714 19.747V2.46925H0V1.07419H5.42857V0H13.5714V1.07419H19V2.46925H17.6429V19.747C17.6429 20.3887 17.4339 20.9249 17.0159 21.3555C16.5979 21.7861 16.0758 22.0009 15.4497 22H3.55029ZM16.2857 2.46925H2.71429V19.747C2.71429 19.9972 2.79255 20.2027 2.94907 20.3636C3.10559 20.5245 3.306 20.6049 3.55029 20.6049H15.4511C15.6592 20.6049 15.8505 20.5157 16.0251 20.3371C16.1998 20.1585 16.2866 19.9614 16.2857 19.7456V2.46925ZM6.52514 17.8148H7.88228V5.25935H6.52514V17.8148ZM11.1177 17.8148H12.4749V5.25935H11.1177V17.8148Z" fill="#828282"/>
</svg>
