<svg width="56" height="56" viewBox="0 0 56 65" fill="none" xmlns="http://www.w3.org/2000/svg">
<path d="M41.1064 17.5917V14.0138C41.1064 13.6858 40.8383 13.4174 40.5106 13.4174H11.9149C11.5872 13.4174 11.3191 13.6858 11.3191 14.0138V17.5917C11.3191 17.9197 11.5872 18.1881 11.9149 18.1881H40.5106C40.8383 18.1881 41.1064 17.9197 41.1064 17.5917ZM11.9149 24.1514C11.5872 24.1514 11.3191 24.4197 11.3191 24.7477V28.3257C11.3191 28.6537 11.5872 28.922 11.9149 28.922H25.617C25.9447 28.922 26.2128 28.6537 26.2128 28.3257V24.7477C26.2128 24.4197 25.9447 24.1514 25.617 24.1514H11.9149ZM39.9149 32.7982C31.0308 32.7982 23.8298 40.0063 23.8298 48.8991C23.8298 57.7919 31.0308 65 39.9149 65C48.7989 65 56 57.7919 56 48.8991C56 40.0063 48.7989 32.7982 39.9149 32.7982ZM47.9202 56.9123C45.783 59.0516 42.9383 60.2294 39.9149 60.2294C36.8915 60.2294 34.0468 59.0516 31.9096 56.9123C29.7723 54.7729 28.5957 51.9255 28.5957 48.8991C28.5957 45.8727 29.7723 43.0252 31.9096 40.8859C34.0468 38.7466 36.8915 37.5688 39.9149 37.5688C42.9383 37.5688 45.783 38.7466 47.9202 40.8859C50.0574 43.0252 51.234 45.8727 51.234 48.8991C51.234 51.9255 50.0574 54.7729 47.9202 56.9123ZM46.5426 43.2339H43.2436C43.05 43.2339 42.8713 43.3234 42.7596 43.4799L38.0308 50.0247L36.3106 47.6468C36.2555 47.57 36.1828 47.5075 36.0986 47.4647C36.0143 47.4219 35.9211 47.4 35.8266 47.4008H32.5426C32.0585 47.4008 31.7755 47.9524 32.0585 48.3475L37.5543 55.9581C37.7926 56.2861 38.2766 56.2861 38.5149 55.9581L47.0191 44.1806C47.3096 43.7856 47.0266 43.2339 46.5426 43.2339ZM22.6383 57.844H5.3617V5.36697H47.0638V31.0092C47.0638 31.3372 47.3319 31.6055 47.6596 31.6055H51.8298C52.1574 31.6055 52.4255 31.3372 52.4255 31.0092V2.38532C52.4255 1.06594 51.3606 0 50.0426 0H2.38298C1.06489 0 0 1.06594 0 2.38532V60.8257C0 62.1451 1.06489 63.211 2.38298 63.211H22.6383C22.966 63.211 23.234 62.9427 23.234 62.6147V58.4404C23.234 58.1124 22.966 57.844 22.6383 57.844Z" fill="#00969D"/>
</svg>
